<svg width="164" height="32" viewBox="0 0 164 32" fill="none" xmlns="http://www.w3.org/2000/svg">
<path d="M153.002 22.7837V8H156.533V13.1545C156.928 12.8621 157.418 12.6281 158.003 12.4526C158.588 12.2625 159.217 12.1675 159.889 12.1675C161.278 12.1675 162.295 12.4965 162.938 13.1545C163.596 13.8126 163.925 14.8215 163.925 16.1815V22.7837H160.394V16.4227C160.394 15.8232 160.269 15.3991 160.021 15.1506C159.772 14.902 159.326 14.7777 158.683 14.7777C158.303 14.7777 157.915 14.8654 157.52 15.0409C157.126 15.2164 156.797 15.4357 156.533 15.6989V22.7837H153.002Z" fill="white"></path>
<path d="M148.711 23.0028C147.424 23.0028 146.474 22.6738 145.86 22.0157C145.26 21.3577 144.96 20.4511 144.96 19.2959V15.0626H143.557V12.3866H144.96V10.2151L148.492 9.27197V12.3866H151.014L150.861 15.0626H148.492V19.0546C148.492 19.5518 148.616 19.9028 148.865 20.1075C149.113 20.2976 149.486 20.3926 149.983 20.3926C150.407 20.3926 150.839 20.3195 151.277 20.1733V22.5641C150.59 22.8566 149.735 23.0028 148.711 23.0028Z" fill="white"></path>
<path d="M141.082 23.003C139.942 23.003 139.123 22.7544 138.626 22.2572C138.128 21.7601 137.88 20.9631 137.88 19.8664V8H141.411V19.5155C141.411 19.8518 141.477 20.0857 141.609 20.2174C141.755 20.3343 141.967 20.3928 142.245 20.3928C142.64 20.3928 142.991 20.3416 143.298 20.2393V22.6301C142.961 22.7617 142.625 22.8568 142.289 22.9153C141.967 22.9738 141.565 23.003 141.082 23.003Z" fill="white"></path>
<path d="M129.466 23.003C128.808 23.003 128.194 22.886 127.624 22.652C127.068 22.4181 126.622 22.0598 126.286 21.5773C125.949 21.0801 125.781 20.4659 125.781 19.7348C125.781 18.6673 126.14 17.8338 126.856 17.2343C127.587 16.6201 128.677 16.313 130.124 16.313H133.02V16.0718C133.02 15.5454 132.844 15.1725 132.493 14.9531C132.142 14.7192 131.484 14.6022 130.519 14.6022C129.335 14.6022 128.172 14.785 127.032 15.1505V12.8694C127.543 12.6647 128.165 12.4965 128.896 12.3649C129.642 12.2333 130.424 12.1675 131.243 12.1675C132.851 12.1675 134.109 12.4965 135.016 13.1545C135.937 13.8125 136.397 14.8581 136.397 16.2911V22.7836H133.305L133.129 21.9063C132.749 22.2572 132.259 22.5277 131.66 22.7178C131.075 22.9079 130.344 23.003 129.466 23.003ZM130.585 20.8315C131.141 20.8315 131.623 20.7364 132.033 20.5464C132.442 20.3563 132.771 20.115 133.02 19.8225V18.3529H130.519C129.481 18.3529 128.962 18.7697 128.962 19.6032C128.962 19.9834 129.093 20.2831 129.357 20.5025C129.62 20.7218 130.029 20.8315 130.585 20.8315Z" fill="white"></path>
<path d="M119.433 23.003C117.62 23.003 116.165 22.557 115.068 21.665C113.971 20.7584 113.423 19.3985 113.423 17.5852C113.423 15.9329 113.876 14.6168 114.783 13.6371C115.689 12.6573 117.049 12.1675 118.863 12.1675C120.515 12.1675 121.794 12.5915 122.701 13.4397C123.608 14.2878 124.061 15.4284 124.061 16.8614V18.7258H116.691C116.852 19.4131 117.225 19.8956 117.81 20.1735C118.409 20.4367 119.221 20.5683 120.244 20.5683C120.815 20.5683 121.392 20.5171 121.977 20.4147C122.577 20.3124 123.074 20.1808 123.469 20.0199V22.323C122.972 22.557 122.379 22.7251 121.692 22.8275C121.005 22.9445 120.252 23.003 119.433 23.003ZM116.691 16.6859H120.99V16.2253C120.99 15.7135 120.837 15.3114 120.53 15.0189C120.222 14.7118 119.703 14.5583 118.972 14.5583C118.124 14.5583 117.532 14.7338 117.196 15.0847C116.859 15.4211 116.691 15.9548 116.691 16.6859Z" fill="white"></path>
<path d="M99.6748 22.7833V8.65771H103.206V14.2509H108.734V8.65771H112.265V22.7833H108.734V17.1901H103.206V22.7833H99.6748Z" fill="white"></path>
<path d="M91.0022 23.0028C89.7154 23.0028 88.7649 22.6738 88.1507 22.0157C87.5512 21.3577 87.2514 20.4511 87.2514 19.2959V15.0626H85.8477V12.3866H87.2514V10.2151L90.7829 9.27197V12.3866H93.3053L93.1517 15.0626H90.7829V19.0546C90.7829 19.5518 90.9071 19.9028 91.1557 20.1075C91.4043 20.2976 91.7772 20.3926 92.2744 20.3926C92.6984 20.3926 93.1298 20.3195 93.5685 20.1733V22.5641C92.8812 22.8566 92.0258 23.0028 91.0022 23.0028Z" fill="white"></path>
<path d="M77.4164 23.003C76.7584 23.003 76.1442 22.886 75.5739 22.652C75.0183 22.4181 74.5723 22.0598 74.2359 21.5773C73.8996 21.0801 73.7314 20.4659 73.7314 19.7348C73.7314 18.6673 74.0897 17.8338 74.8062 17.2343C75.5374 16.6201 76.6268 16.313 78.0744 16.313H80.9697V16.0718C80.9697 15.5454 80.7943 15.1725 80.4433 14.9531C80.0924 14.7192 79.4343 14.6022 78.4692 14.6022C77.2848 14.6022 76.1223 14.785 74.9817 15.1505V12.8694C75.4935 12.6647 76.115 12.4965 76.8461 12.3649C77.5919 12.2333 78.3742 12.1675 79.1931 12.1675C80.8016 12.1675 82.0591 12.4965 82.9657 13.1545C83.887 13.8125 84.3476 14.8581 84.3476 16.2911V22.7836H81.2549L81.0794 21.9063C80.6992 22.2572 80.2093 22.5277 79.6098 22.7178C79.0249 22.9079 78.2938 23.003 77.4164 23.003ZM78.535 20.8315C79.0907 20.8315 79.5733 20.7364 79.9827 20.5464C80.3921 20.3563 80.7211 20.115 80.9697 19.8225V18.3529H78.4692C77.431 18.3529 76.9119 18.7697 76.9119 19.6032C76.9119 19.9834 77.0435 20.2831 77.3067 20.5025C77.5699 20.7218 77.9794 20.8315 78.535 20.8315Z" fill="white"></path>
<path d="M66.3535 23.003C64.3502 23.003 62.8733 22.5424 61.9228 21.6211C60.9723 20.6853 60.4971 19.34 60.4971 17.5852C60.4971 15.8451 60.9723 14.5071 61.9228 13.5713C62.8879 12.6354 64.3648 12.1675 66.3535 12.1675C68.3568 12.1675 69.8337 12.6354 70.7842 13.5713C71.7493 14.5071 72.2319 15.8451 72.2319 17.5852C72.2319 19.34 71.7566 20.6853 70.8061 21.6211C69.8557 22.5424 68.3715 23.003 66.3535 23.003ZM66.3535 20.2393C67.1724 20.2393 67.7573 20.0346 68.1082 19.6251C68.4592 19.2157 68.6347 18.5357 68.6347 17.5852C68.6347 16.6347 68.4592 15.9548 68.1082 15.5453C67.7573 15.1359 67.1724 14.9312 66.3535 14.9312C65.5493 14.9312 64.9716 15.1359 64.6207 15.5453C64.2698 15.9548 64.0943 16.6347 64.0943 17.5852C64.0943 18.5357 64.2698 19.2157 64.6207 19.6251C64.9716 20.0346 65.5493 20.2393 66.3535 20.2393Z" fill="white"></path>
<path d="M56.7815 23.003C55.6409 23.003 54.822 22.7544 54.3249 22.2572C53.8277 21.7601 53.5791 20.9631 53.5791 19.8664V8H57.1105V19.5155C57.1105 19.8518 57.1763 20.0857 57.3079 20.2174C57.4541 20.3343 57.6662 20.3928 57.944 20.3928C58.3388 20.3928 58.6898 20.3416 58.9969 20.2393V22.6301C58.6605 22.7617 58.3242 22.8568 57.9879 22.9153C57.6662 22.9738 57.264 23.003 56.7815 23.003Z" fill="white"></path>
<path d="M41.8135 22.7838V8.6582H52.0787V11.378H45.3449V14.3392H51.2671V17.1029H45.3449V22.7838H41.8135Z" fill="white"></path>
<path id="logo-mark" fill-rule="evenodd" clip-rule="evenodd" d="M19 0H13V1.30005C7.12261 2.4931 2.4931 7.12261 1.30005 13H0V19H1.30005C2.4931 24.8774 7.12261 29.5069 13 30.6999V32H19V30.6999C24.8774 29.5069 29.5069 24.8774 30.6999 19H32V13H30.6999C29.5069 7.12261 24.8774 2.4931 19 1.30005V0ZM3.16107 13C4.29477 8.12899 8.12899 4.29477 13 3.16107V8.58152C10.9946 9.39328 9.39328 10.9946 8.58152 13H3.16107ZM8.58152 19H3.16107C4.29477 23.871 8.12899 27.7052 13 28.8389V23.4185C10.9946 22.6067 9.39328 21.0054 8.58152 19ZM19 23.4185V28.8389C23.871 27.7052 27.7052 23.871 28.8389 19H23.4185C22.6067 21.0054 21.0054 22.6067 19 23.4185ZM23.4185 13H28.8389C27.7052 8.12899 23.871 4.29477 19 3.16107V8.58152C21.0054 9.39328 22.6067 10.9946 23.4185 13ZM22.2545 16C22.2545 19.4543 19.4543 22.2545 16 22.2545C12.5457 22.2545 9.74545 19.4543 9.74545 16C9.74545 12.5457 12.5457 9.74545 16 9.74545C19.4543 9.74545 22.2545 12.5457 22.2545 16Z" fill="white"></path>
</svg>